<?xml version="1.0" encoding="utf-8"?>
<!-- Generator: Adobe Illustrator 27.1.1, SVG Export Plug-In . SVG Version: 6.00 Build 0)  -->
<svg version="1.1" id="Layer_1" xmlns="http://www.w3.org/2000/svg" xmlns:xlink="http://www.w3.org/1999/xlink" x="0px" y="0px"
	 viewBox="0 0 1136 936" style="enable-background:new 0 0 1136 936;" xml:space="preserve">
<style type="text/css">
	.st0{display:none;fill:#E2B780;}
	.st1{fill:#C6A171;}
	.st2{fill:#82603C;}
	.st3{fill:#795937;}
	.st4{fill:#8D6842;}
	.st5{fill:#A97C50;}
	.st6{fill:#9A7148;}
	.st7{fill:#FFFFFF;}
	.st8{fill:#D9432D;}
	.st9{fill:#EF4A32;}
	.st10{fill:#F37235;}
	.st11{fill:#F6A0B1;}
	.st12{fill:#F8B2BA;}
	.st13{fill:#F384A2;}
	.st14{fill:#0D1607;}
	.st15{fill:#020B00;}
	.st16{fill:#FFFAC0;}
	.st17{fill:#F6B32D;}
	.st18{fill:#CF3D3B;}
	.st19{fill:#EF4745;}
	.st20{fill:#414042;}
	.st21{fill:#DADBDC;}
	.st22{fill:#2E2E2F;}
	.st23{fill:#926B44;}
	.st24{fill:#D63F2B;}
	.st25{fill:#A52F1D;}
</style>
<rect x="0" class="st0" width="1136" height="936"/>
<path class="st1" d="M88.8,184.5c-18.3,0-33.1,14.8-33.1,33.1v362.9c0,18.3,14.8,33.1,33.1,33.1h958.5c18.3,0,33.1-14.8,33.1-33.1
	V217.6c0-18.3-14.8-33.1-33.1-33.1H88.8z"/>
<g>
	<g>
		<path class="st2" d="M152.5,583.1h79.9c13.5,0,24.5-11,24.5-24.5V430.1H128v128.5C128,572.1,139,583.1,152.5,583.1z"/>
		<rect x="128" y="393.1" class="st3" width="129" height="153"/>
	</g>
	<g>
		<path class="st2" d="M903.5,583.1h79.9c13.5,0,24.5-11,24.5-24.5V430.1H879v128.5C879,572.1,890,583.1,903.5,583.1z"/>
		<rect x="879" y="393.1" class="st3" width="129" height="153"/>
	</g>
</g>
<path class="st4" d="M106.8,116.6c-18.3,0-33.1,14.8-33.1,33.1v347.8c0,18.3,14.8,33.1,33.1,33.1h922.5c18.3,0,33.1-14.8,33.1-33.1
	V149.7c0-18.3-14.8-33.1-33.1-33.1H106.8z"/>
<path class="st5" d="M106.8,73.1c-18.3,0-33.1,14.8-33.1,33.1V454c0,18.3,14.8,33.1,33.1,33.1h922.5c18.3,0,33.1-14.8,33.1-33.1
	V106.2c0-18.3-14.8-33.1-33.1-33.1H106.8z"/>
<g>
	<ellipse class="st6" cx="289.6" cy="223.4" rx="157.6" ry="23.7"/>
	<path class="st7" d="M277.3,119.1c-77.8,0-140.9,47.2-140.9,78c0,30.8,63.1,33.4,140.9,33.4c77.8,0,140.9-2.7,140.9-33.4
		C418.2,166.3,355.1,119.1,277.3,119.1z"/>
	<path class="st8" d="M455.8,198c5.7,0.7,6.8-16.9,6.8-16.9s8-3.5,6.5-15.1c-1.5-11.6-44.9-9.8-48-8.9l-11.3,8.9l14,30.5
		c0,0,18.4,24.7,33.6,28.2C472.6,228.3,450.1,197.2,455.8,198z"/>
	<path class="st9" d="M265,92.2c-100.4,0-138.6,47.8-126.4,76.6c1.1,2.6,11.1,19,68.7,19s183.1,1.3,204.2,7.2
		c21.1,5.9,20-16.4,13.7-32.8C419,145.9,365.4,92.2,265,92.2z"/>
	<path class="st10" d="M205.8,98.9c-2,9.2-3.7,22.6-2.7,39.1l4.2-0.3l4.2-0.3c-1.1-18.4,1.5-32.5,3.5-40.6
		C211.9,97.4,208.8,98.1,205.8,98.9z"/>
	<path class="st10" d="M247.1,92.7c-2.2,9.2-4.5,23.6-3.4,42l4.2-0.3v0l0,0l4.2-0.3c-1.2-19.4,1.7-34,3.8-41.7
		C253.1,92.4,250.1,92.6,247.1,92.7z"/>
	<path class="st10" d="M288.9,93.3c-2.2,9.2-4.3,23.5-3.2,41.5l4.2-0.3l4.2-0.3c-1.1-17.9,1.3-31.8,3.4-39.9
		C294.7,93.8,291.8,93.5,288.9,93.3z"/>
	<path class="st10" d="M328.3,100c-2.2,9.1-4.7,23.9-3.6,42.8l4.2-0.3l4.2-0.3c-1.1-17.8,1.3-31.7,3.3-39.8
		C333.8,101.5,331.1,100.7,328.3,100z"/>
	<path class="st10" d="M361.7,111.6c-2.3,9.1-4.7,23.9-3.6,42.9l4.2-0.3v0l0,0l4.2-0.3c-1-16.9,1.1-30.3,3-38.5
		C367.1,114.1,364.4,112.8,361.7,111.6z"/>
</g>
<g>
	<ellipse class="st6" cx="277.3" cy="411.2" rx="157.6" ry="23.7"/>
	<path class="st7" d="M277.3,306.8c-77.8,0-140.9,47.2-140.9,78c0,30.8,63.1,33.4,140.9,33.4c77.8,0,140.9-2.7,140.9-33.4
		C418.2,354,355.1,306.8,277.3,306.8z"/>
	<path class="st11" d="M400.3,298.4c-76.6-41.6-169.4-41.6-245.9,0c-19.4,10.6-24.7,36.1-11.2,53.6c2.6,3.4,5.3,6.8,7.9,10.2
		c4.8,6.2,13.5,7.5,20,3.2c64.3-42.8,148.2-42.8,212.5,0c6.5,4.3,15.2,3,20-3.2c2.6-3.4,5.3-6.8,7.9-10.2
		C425,334.5,419.7,308.9,400.3,298.4z"/>
	<path class="st12" d="M190.2,282.3c0.3,0.2,0.6,0.4,1,0.5c19.7,8.3,40.5,1,59.1-7.3c5.2,14.5,22.8,18.7,35.3,13.5
		c7.3-3.1,15.6-10.4,23.9-9.3c2.1,0,3.1,7.3,6.2,8.3c11.4,3.1,22.8-1,34.2-1c2.1,0,3.1,9.3,8.3,10.4c14.3,2.5,28.7,3,42.6,1.3
		c-0.2-0.1-0.3-0.2-0.5-0.3C335.3,263.1,258.7,257.7,190.2,282.3z"/>
	<path class="st13" d="M154.4,298.4c-19.4,10.6-24.7,36.1-11.2,53.6c2.6,3.4,5.3,6.8,7.9,10.2c4.8,6.2,13.5,7.5,20,3.2
		c64.3-42.8,148.2-42.8,212.5,0c6.5,4.3,15.2,3,20-3.2c2.6-3.4,5.3-6.8,7.9-10.2c6.7-8.6,8.8-19.1,6.9-28.9
		c-3.1,1.8-6.3,3.5-9.4,5.4c-9.3,6.2-24.9,5.2-33.2-4.1c-5.2-5.2-18.7,5.2-21.8,0c-18.7-33.2-47.7-10.4-73.6-5.2
		c-5.2,1-10.4-4.1-15.6-7.3c-14.5-10.4-29,3.1-41.5,10.4c-9.3,5.2-19.7,1-23.9-8.3c-1-2.1-5.2-1-7.3-1c-12.4,5.2-29,20.7-37.3,4.1
		c-3.4-6.8-1-14.1,3.1-20.6C156.8,297.1,155.6,297.7,154.4,298.4z"/>
	<path class="st14" d="M252.4,260c-5.1,0-9.3,4.1-9.3,9.3v143.3c0,5.1,4.1,9.3,9.3,9.3h49.8c5.1,0,9.3-4.1,9.3-9.3V269.3
		c0-5.1-4.1-9.3-9.3-9.3H252.4z"/>
</g>
<g>
	<ellipse class="st6" cx="606.4" cy="214" rx="124.5" ry="39.4"/>
	<g>
		<path class="st14" d="M606.4,240.4c56.1,0,101.6-13.5,101.6-30.2v-89.1H504.8v89.1C504.8,226.9,550.3,240.4,606.4,240.4z"/>
		<path class="st15" d="M549.5,235.2V121.1h-44.6v89.1C504.8,220.6,522.5,229.8,549.5,235.2z"/>
		<ellipse class="st14" cx="606.4" cy="121.1" rx="101.6" ry="30.2"/>
		<ellipse class="st7" cx="606.4" cy="121.1" rx="98.3" ry="26.8"/>
		<ellipse class="st16" cx="606.4" cy="121.1" rx="82.9" ry="22.6"/>
		<path class="st17" d="M539.4,121.1c0,10.1,30,18.3,67,18.3c37,0,67-8.2,67-18.3c0-10.1-30-31.8-67-31.8
			C569.4,89.3,539.4,110.9,539.4,121.1z"/>
		<path class="st7" d="M629.1,97.3c-0.9,1.6,1.5,4.6,5.4,6.7c3.9,2.1,7.7,2.5,8.6,0.9c0.9-1.6-1.5-4.6-5.4-6.7
			C633.8,96.1,630,95.7,629.1,97.3z"/>
	</g>
</g>
<g>
	<ellipse class="st6" cx="606.4" cy="399" rx="124.5" ry="39.4"/>
	<g>
		<path class="st14" d="M606.4,425.4c56.1,0,101.6-13.5,101.6-30.2v-89.1H504.8v89.1C504.8,411.9,550.3,425.4,606.4,425.4z"/>
		<path class="st15" d="M549.5,420.2V306.1h-44.6v89.1C504.8,405.6,522.5,414.8,549.5,420.2z"/>
		<ellipse class="st14" cx="606.4" cy="306.1" rx="101.6" ry="30.2"/>
		<ellipse class="st7" cx="606.4" cy="306.1" rx="98.3" ry="26.8"/>
	</g>
	<g>
		<g>
			<path class="st18" d="M538.1,298.7c0,5.2,4.2,9.3,9.3,9.3c5.2,0,9.3-4.2,9.3-9.3c0-5.2-4.2-9.3-9.3-9.3
				C542.3,289.4,538.1,293.6,538.1,298.7z"/>
			<g>
				<g>
					
						<ellipse transform="matrix(0.7071 -0.7071 0.7071 0.7071 -50.8941 474.5981)" class="st19" cx="547.4" cy="298.7" rx="8.7" ry="8.7"/>
					<path class="st7" d="M547.4,294.4c0,1.4,1.2,2.6,2.6,2.6c1.4,0,2.6-1.2,2.6-2.6c0-1.4-1.2-2.6-2.6-2.6
						C548.6,291.8,547.4,293,547.4,294.4z"/>
				</g>
			</g>
			
				<ellipse transform="matrix(0.7071 -0.7071 0.7071 0.7071 -50.8941 474.5981)" class="st19" cx="547.4" cy="298.7" rx="8.7" ry="8.7"/>
			<path class="st7" d="M547.4,294.4c0,1.4,1.2,2.6,2.6,2.6c1.4,0,2.6-1.2,2.6-2.6c0-1.4-1.2-2.6-2.6-2.6
				C548.6,291.8,547.4,293,547.4,294.4z"/>
		</g>
		<g>
			<path class="st18" d="M550,308.7c0,5.2,4.2,9.3,9.3,9.3c5.2,0,9.3-4.2,9.3-9.3c0-5.2-4.2-9.3-9.3-9.3
				C554.2,299.4,550,303.6,550,308.7z"/>
			<g>
				<g>
					
						<ellipse transform="matrix(0.9732 -0.2298 0.2298 0.9732 -55.9697 136.7704)" class="st19" cx="559.3" cy="308.7" rx="8.7" ry="8.7"/>
					<path class="st7" d="M559.3,304.4c0,1.4,1.2,2.6,2.6,2.6c1.4,0,2.6-1.2,2.6-2.6c0-1.4-1.2-2.6-2.6-2.6
						C560.5,301.8,559.3,303,559.3,304.4z"/>
				</g>
			</g>
			
				<ellipse transform="matrix(0.9732 -0.2298 0.2298 0.9732 -55.9697 136.7704)" class="st19" cx="559.3" cy="308.7" rx="8.7" ry="8.7"/>
			<path class="st7" d="M559.3,304.4c0,1.4,1.2,2.6,2.6,2.6c1.4,0,2.6-1.2,2.6-2.6c0-1.4-1.2-2.6-2.6-2.6
				C560.5,301.8,559.3,303,559.3,304.4z"/>
		</g>
		<g>
			
				<ellipse transform="matrix(0.9925 -0.1222 0.1222 0.9925 -31.7525 70.9757)" class="st18" cx="562.8" cy="294.4" rx="9.3" ry="9.3"/>
			<g>
				<g>
					<path class="st19" d="M554.2,294.4c0,4.8,3.9,8.7,8.7,8.7c4.8,0,8.7-3.9,8.7-8.7c0-4.8-3.9-8.7-8.7-8.7
						C558.1,285.7,554.2,289.6,554.2,294.4z"/>
					<path class="st7" d="M562.8,290c0,1.4,1.2,2.6,2.6,2.6c1.4,0,2.6-1.2,2.6-2.6s-1.2-2.6-2.6-2.6
						C564,287.5,562.8,288.6,562.8,290z"/>
				</g>
			</g>
			<path class="st19" d="M554.2,294.4c0,4.8,3.9,8.7,8.7,8.7c4.8,0,8.7-3.9,8.7-8.7c0-4.8-3.9-8.7-8.7-8.7
				C558.1,285.7,554.2,289.6,554.2,294.4z"/>
			<path class="st7" d="M562.8,290c0,1.4,1.2,2.6,2.6,2.6c1.4,0,2.6-1.2,2.6-2.6s-1.2-2.6-2.6-2.6C564,287.5,562.8,288.6,562.8,290z
				"/>
		</g>
		<g>
			<path class="st18" d="M567.2,300.1c0,5.2,4.2,9.3,9.3,9.3c5.2,0,9.3-4.2,9.3-9.3c0-5.2-4.2-9.3-9.3-9.3
				C571.4,290.7,567.2,294.9,567.2,300.1z"/>
			<g>
				<g>
					<path class="st19" d="M567.8,300.1c0,4.8,3.9,8.7,8.7,8.7c4.8,0,8.7-3.9,8.7-8.7c0-4.8-3.9-8.7-8.7-8.7
						C571.7,291.4,567.8,295.3,567.8,300.1z"/>
					<path class="st7" d="M576.5,295.7c0,1.4,1.2,2.6,2.6,2.6c1.4,0,2.6-1.2,2.6-2.6c0-1.4-1.2-2.6-2.6-2.6
						C577.7,293.2,576.5,294.3,576.5,295.7z"/>
				</g>
			</g>
			<path class="st19" d="M567.8,300.1c0,4.8,3.9,8.7,8.7,8.7c4.8,0,8.7-3.9,8.7-8.7c0-4.8-3.9-8.7-8.7-8.7
				C571.7,291.4,567.8,295.3,567.8,300.1z"/>
			<path class="st7" d="M576.5,295.7c0,1.4,1.2,2.6,2.6,2.6c1.4,0,2.6-1.2,2.6-2.6c0-1.4-1.2-2.6-2.6-2.6
				C577.7,293.2,576.5,294.3,576.5,295.7z"/>
		</g>
		<g>
			<path class="st18" d="M563.7,307.4c0,5.2,4.2,9.3,9.3,9.3c5.2,0,9.3-4.2,9.3-9.3c0-5.2-4.2-9.3-9.3-9.3
				C567.8,298.1,563.7,302.2,563.7,307.4z"/>
			<g>
				<g>
					<path class="st19" d="M564.3,307.4c0,4.8,3.9,8.7,8.7,8.7c4.8,0,8.7-3.9,8.7-8.7c0-4.8-3.9-8.7-8.7-8.7
						C568.2,298.7,564.3,302.6,564.3,307.4z"/>
					<path class="st7" d="M573,303.1c0,1.4,1.2,2.6,2.6,2.6c1.4,0,2.6-1.2,2.6-2.6c0-1.4-1.2-2.6-2.6-2.6
						C574.1,300.5,573,301.6,573,303.1z"/>
				</g>
			</g>
			<path class="st19" d="M564.3,307.4c0,4.8,3.9,8.7,8.7,8.7c4.8,0,8.7-3.9,8.7-8.7c0-4.8-3.9-8.7-8.7-8.7
				C568.2,298.7,564.3,302.6,564.3,307.4z"/>
			<path class="st7" d="M573,303.1c0,1.4,1.2,2.6,2.6,2.6c1.4,0,2.6-1.2,2.6-2.6c0-1.4-1.2-2.6-2.6-2.6
				C574.1,300.5,573,301.6,573,303.1z"/>
		</g>
		<g>
			<path class="st18" d="M580.3,311.1c0,5.2,4.2,9.3,9.3,9.3c5.2,0,9.3-4.2,9.3-9.3c0-5.2-4.2-9.3-9.3-9.3
				C584.4,301.8,580.3,306,580.3,311.1z"/>
			<g>
				<g>
					<path class="st19" d="M580.9,311.1c0,4.8,3.9,8.7,8.7,8.7c4.8,0,8.7-3.9,8.7-8.7c0-4.8-3.9-8.7-8.7-8.7
						C584.8,302.5,580.9,306.4,580.9,311.1z"/>
					<path class="st7" d="M589.6,306.8c0,1.4,1.2,2.6,2.6,2.6c1.4,0,2.6-1.2,2.6-2.6c0-1.4-1.2-2.6-2.6-2.6
						C590.7,304.2,589.6,305.4,589.6,306.8z"/>
				</g>
			</g>
			<path class="st19" d="M580.9,311.1c0,4.8,3.9,8.7,8.7,8.7c4.8,0,8.7-3.9,8.7-8.7c0-4.8-3.9-8.7-8.7-8.7
				C584.8,302.5,580.9,306.4,580.9,311.1z"/>
			<path class="st7" d="M589.6,306.8c0,1.4,1.2,2.6,2.6,2.6c1.4,0,2.6-1.2,2.6-2.6c0-1.4-1.2-2.6-2.6-2.6
				C590.7,304.2,589.6,305.4,589.6,306.8z"/>
		</g>
		<g>
			<path class="st18" d="M593.5,303.1c0,5.2,4.2,9.3,9.3,9.3c5.2,0,9.3-4.2,9.3-9.3c0-5.2-4.2-9.3-9.3-9.3
				C597.7,293.7,593.5,297.9,593.5,303.1z"/>
			<g>
				<g>
					<circle class="st19" cx="602.9" cy="303.1" r="8.7"/>
					<path class="st7" d="M602.9,298.7c0,1.4,1.2,2.6,2.6,2.6c1.4,0,2.6-1.2,2.6-2.6c0-1.4-1.2-2.6-2.6-2.6
						C604,296.1,602.9,297.3,602.9,298.7z"/>
				</g>
			</g>
			<circle class="st19" cx="602.9" cy="303.1" r="8.7"/>
			<path class="st7" d="M602.9,298.7c0,1.4,1.2,2.6,2.6,2.6c1.4,0,2.6-1.2,2.6-2.6c0-1.4-1.2-2.6-2.6-2.6
				C604,296.1,602.9,297.3,602.9,298.7z"/>
		</g>
		<g>
			<path class="st18" d="M594.7,310.6c0,5.2,4.2,9.3,9.3,9.3c5.2,0,9.3-4.2,9.3-9.3c0-5.2-4.2-9.3-9.3-9.3
				C598.9,301.3,594.7,305.5,594.7,310.6z"/>
			<g>
				<g>
					<path class="st19" d="M595.4,310.6c0,4.8,3.9,8.7,8.7,8.7c4.8,0,8.7-3.9,8.7-8.7c0-4.8-3.9-8.7-8.7-8.7
						C599.3,301.9,595.4,305.8,595.4,310.6z"/>
					<path class="st7" d="M604.1,306.3c0,1.4,1.2,2.6,2.6,2.6c1.4,0,2.6-1.2,2.6-2.6c0-1.4-1.2-2.6-2.6-2.6
						C605.2,303.7,604.1,304.8,604.1,306.3z"/>
				</g>
			</g>
			<path class="st19" d="M595.4,310.6c0,4.8,3.9,8.7,8.7,8.7c4.8,0,8.7-3.9,8.7-8.7c0-4.8-3.9-8.7-8.7-8.7
				C599.3,301.9,595.4,305.8,595.4,310.6z"/>
			<path class="st7" d="M604.1,306.3c0,1.4,1.2,2.6,2.6,2.6c1.4,0,2.6-1.2,2.6-2.6c0-1.4-1.2-2.6-2.6-2.6
				C605.2,303.7,604.1,304.8,604.1,306.3z"/>
		</g>
		<g>
			
				<ellipse transform="matrix(9.853818e-02 -0.9951 0.9951 9.853818e-02 258.3243 873.9474)" class="st18" cx="611.5" cy="294.4" rx="9.3" ry="9.3"/>
			<g>
				<g>
					<path class="st19" d="M602.9,294.4c0,4.8,3.9,8.7,8.7,8.7c4.8,0,8.7-3.9,8.7-8.7c0-4.8-3.9-8.7-8.7-8.7
						C606.8,285.7,602.9,289.6,602.9,294.4z"/>
					<path class="st7" d="M611.5,290c0,1.4,1.2,2.6,2.6,2.6c1.4,0,2.6-1.2,2.6-2.6s-1.2-2.6-2.6-2.6
						C612.7,287.5,611.5,288.6,611.5,290z"/>
				</g>
			</g>
			<path class="st19" d="M602.9,294.4c0,4.8,3.9,8.7,8.7,8.7c4.8,0,8.7-3.9,8.7-8.7c0-4.8-3.9-8.7-8.7-8.7
				C606.8,285.7,602.9,289.6,602.9,294.4z"/>
			<path class="st7" d="M611.5,290c0,1.4,1.2,2.6,2.6,2.6c1.4,0,2.6-1.2,2.6-2.6s-1.2-2.6-2.6-2.6
				C612.7,287.5,611.5,288.6,611.5,290z"/>
		</g>
		<g>
			<path class="st18" d="M605.4,282.5c0,5.2,4.2,9.3,9.3,9.3c5.2,0,9.3-4.2,9.3-9.3c0-5.2-4.2-9.3-9.3-9.3
				C609.6,273.2,605.4,277.3,605.4,282.5z"/>
			<g>
				<g>
					<circle class="st19" cx="614.8" cy="282.5" r="8.7"/>
					<path class="st7" d="M614.8,278.1c0,1.4,1.2,2.6,2.6,2.6s2.6-1.2,2.6-2.6c0-1.4-1.2-2.6-2.6-2.6S614.8,276.7,614.8,278.1z"/>
				</g>
			</g>
			<circle class="st19" cx="614.8" cy="282.5" r="8.7"/>
			<path class="st7" d="M614.8,278.1c0,1.4,1.2,2.6,2.6,2.6s2.6-1.2,2.6-2.6c0-1.4-1.2-2.6-2.6-2.6S614.8,276.7,614.8,278.1z"/>
		</g>
		<g>
			<path class="st18" d="M593.5,275.8c0,5.2,4.2,9.3,9.3,9.3c5.2,0,9.3-4.2,9.3-9.3c0-5.2-4.2-9.3-9.3-9.3
				C597.7,266.5,593.5,270.7,593.5,275.8z"/>
			<g>
				<g>
					<path class="st19" d="M594.2,275.8c0,4.8,3.9,8.7,8.7,8.7c4.8,0,8.7-3.9,8.7-8.7c0-4.8-3.9-8.7-8.7-8.7
						C598.1,267.2,594.2,271,594.2,275.8z"/>
					<path class="st7" d="M602.9,271.5c0,1.4,1.2,2.6,2.6,2.6c1.4,0,2.6-1.2,2.6-2.6c0-1.4-1.2-2.6-2.6-2.6
						C604,268.9,602.9,270.1,602.9,271.5z"/>
				</g>
			</g>
			<path class="st19" d="M594.2,275.8c0,4.8,3.9,8.7,8.7,8.7c4.8,0,8.7-3.9,8.7-8.7c0-4.8-3.9-8.7-8.7-8.7
				C598.1,267.2,594.2,271,594.2,275.8z"/>
			<path class="st7" d="M602.9,271.5c0,1.4,1.2,2.6,2.6,2.6c1.4,0,2.6-1.2,2.6-2.6c0-1.4-1.2-2.6-2.6-2.6
				C604,268.9,602.9,270.1,602.9,271.5z"/>
		</g>
		<g>
			<circle class="st18" cx="629.2" cy="290.7" r="9.3"/>
			<g>
				<g>
					
						<ellipse transform="matrix(0.7071 -0.7071 0.7071 0.7071 -21.2824 530.1021)" class="st19" cx="629.2" cy="290.7" rx="8.7" ry="8.7"/>
					<path class="st7" d="M629.2,286.4c0,1.4,1.2,2.6,2.6,2.6c1.4,0,2.6-1.2,2.6-2.6c0-1.4-1.2-2.6-2.6-2.6
						C630.4,283.8,629.2,285,629.2,286.4z"/>
				</g>
			</g>
			
				<ellipse transform="matrix(0.7071 -0.7071 0.7071 0.7071 -21.2824 530.1021)" class="st19" cx="629.2" cy="290.7" rx="8.7" ry="8.7"/>
			<path class="st7" d="M629.2,286.4c0,1.4,1.2,2.6,2.6,2.6c1.4,0,2.6-1.2,2.6-2.6c0-1.4-1.2-2.6-2.6-2.6
				C630.4,283.8,629.2,285,629.2,286.4z"/>
		</g>
		<g>
			
				<ellipse transform="matrix(0.3827 -0.9239 0.9239 0.3827 101.8218 759.8264)" class="st18" cx="619.5" cy="303.7" rx="9.3" ry="9.3"/>
			<g>
				<g>
					
						<ellipse transform="matrix(0.7071 -0.7071 0.7071 0.7071 -33.3176 527.0036)" class="st19" cx="619.5" cy="303.7" rx="8.7" ry="8.7"/>
					<path class="st7" d="M619.5,299.4c0,1.4,1.2,2.6,2.6,2.6c1.4,0,2.6-1.2,2.6-2.6s-1.2-2.6-2.6-2.6
						C620.6,296.8,619.5,298,619.5,299.4z"/>
				</g>
			</g>
			
				<ellipse transform="matrix(0.7071 -0.7071 0.7071 0.7071 -33.3176 527.0036)" class="st19" cx="619.5" cy="303.7" rx="8.7" ry="8.7"/>
			<path class="st7" d="M619.5,299.4c0,1.4,1.2,2.6,2.6,2.6c1.4,0,2.6-1.2,2.6-2.6s-1.2-2.6-2.6-2.6
				C620.6,296.8,619.5,298,619.5,299.4z"/>
		</g>
		<g>
			<path class="st18" d="M611.5,309.4c0,5.2,4.2,9.3,9.3,9.3c5.2,0,9.3-4.2,9.3-9.3c0-5.2-4.2-9.3-9.3-9.3
				C615.7,300,611.5,304.2,611.5,309.4z"/>
			<g>
				<g>
					<path class="st19" d="M612.2,309.4c0,4.8,3.9,8.7,8.7,8.7c4.8,0,8.7-3.9,8.7-8.7c0-4.8-3.9-8.7-8.7-8.7
						C616.1,300.7,612.2,304.6,612.2,309.4z"/>
					<path class="st7" d="M620.9,305c0,1.4,1.2,2.6,2.6,2.6c1.4,0,2.6-1.2,2.6-2.6c0-1.4-1.2-2.6-2.6-2.6
						C622,302.5,620.9,303.6,620.9,305z"/>
				</g>
			</g>
			<path class="st19" d="M612.2,309.4c0,4.8,3.9,8.7,8.7,8.7c4.8,0,8.7-3.9,8.7-8.7c0-4.8-3.9-8.7-8.7-8.7
				C616.1,300.7,612.2,304.6,612.2,309.4z"/>
			<path class="st7" d="M620.9,305c0,1.4,1.2,2.6,2.6,2.6c1.4,0,2.6-1.2,2.6-2.6c0-1.4-1.2-2.6-2.6-2.6
				C622,302.5,620.9,303.6,620.9,305z"/>
		</g>
		<g>
			<path class="st18" d="M624.1,302.5c0,5.2,4.2,9.3,9.3,9.3c5.2,0,9.3-4.2,9.3-9.3c0-5.2-4.2-9.3-9.3-9.3
				C628.3,293.1,624.1,297.3,624.1,302.5z"/>
			<g>
				<g>
					<path class="st19" d="M624.8,302.5c0,4.8,3.9,8.7,8.7,8.7c4.8,0,8.7-3.9,8.7-8.7c0-4.8-3.9-8.7-8.7-8.7
						C628.7,293.8,624.8,297.7,624.8,302.5z"/>
					<path class="st7" d="M633.4,298.1c0,1.4,1.2,2.6,2.6,2.6c1.4,0,2.6-1.2,2.6-2.6c0-1.4-1.2-2.6-2.6-2.6
						C634.6,295.5,633.4,296.7,633.4,298.1z"/>
				</g>
			</g>
			<path class="st19" d="M624.8,302.5c0,4.8,3.9,8.7,8.7,8.7c4.8,0,8.7-3.9,8.7-8.7c0-4.8-3.9-8.7-8.7-8.7
				C628.7,293.8,624.8,297.7,624.8,302.5z"/>
			<path class="st7" d="M633.4,298.1c0,1.4,1.2,2.6,2.6,2.6c1.4,0,2.6-1.2,2.6-2.6c0-1.4-1.2-2.6-2.6-2.6
				C634.6,295.5,633.4,296.7,633.4,298.1z"/>
		</g>
		<g>
			<path class="st18" d="M629.2,309.4c0,5.2,4.2,9.3,9.3,9.3c5.2,0,9.3-4.2,9.3-9.3c0-5.2-4.2-9.3-9.3-9.3
				C633.4,300.1,629.2,304.2,629.2,309.4z"/>
			<g>
				<g>
					<path class="st19" d="M629.9,309.4c0,4.8,3.9,8.7,8.7,8.7c4.8,0,8.7-3.9,8.7-8.7c0-4.8-3.9-8.7-8.7-8.7
						C633.8,300.7,629.9,304.6,629.9,309.4z"/>
					<circle class="st7" cx="641.1" cy="305.1" r="2.6"/>
				</g>
			</g>
			<path class="st19" d="M629.9,309.4c0,4.8,3.9,8.7,8.7,8.7c4.8,0,8.7-3.9,8.7-8.7c0-4.8-3.9-8.7-8.7-8.7
				C633.8,300.7,629.9,304.6,629.9,309.4z"/>
			<circle class="st7" cx="641.1" cy="305.1" r="2.6"/>
		</g>
		<g>
			<path class="st18" d="M634.4,294.4c0,5.2,4.2,9.3,9.3,9.3c5.2,0,9.3-4.2,9.3-9.3c0-5.2-4.2-9.3-9.3-9.3
				C638.6,285.1,634.4,289.2,634.4,294.4z"/>
			<g>
				<g>
					<path class="st19" d="M635.1,294.4c0,4.8,3.9,8.7,8.7,8.7c4.8,0,8.7-3.9,8.7-8.7c0-4.8-3.9-8.7-8.7-8.7
						C638.9,285.7,635.1,289.6,635.1,294.4z"/>
					<path class="st7" d="M643.7,290c0,1.4,1.2,2.6,2.6,2.6c1.4,0,2.6-1.2,2.6-2.6s-1.2-2.6-2.6-2.6
						C644.9,287.5,643.7,288.6,643.7,290z"/>
				</g>
			</g>
			<path class="st19" d="M635.1,294.4c0,4.8,3.9,8.7,8.7,8.7c4.8,0,8.7-3.9,8.7-8.7c0-4.8-3.9-8.7-8.7-8.7
				C638.9,285.7,635.1,289.6,635.1,294.4z"/>
			<path class="st7" d="M643.7,290c0,1.4,1.2,2.6,2.6,2.6c1.4,0,2.6-1.2,2.6-2.6s-1.2-2.6-2.6-2.6
				C644.9,287.5,643.7,288.6,643.7,290z"/>
		</g>
		<g>
			<path class="st18" d="M620.2,279.2c0,5.2,4.2,9.3,9.3,9.3c5.2,0,9.3-4.2,9.3-9.3c0-5.2-4.2-9.3-9.3-9.3
				C624.4,269.9,620.2,274.1,620.2,279.2z"/>
			<g>
				<g>
					<path class="st19" d="M620.9,279.2c0,4.8,3.9,8.7,8.7,8.7c4.8,0,8.7-3.9,8.7-8.7c0-4.8-3.9-8.7-8.7-8.7
						C624.8,270.5,620.9,274.4,620.9,279.2z"/>
					<path class="st7" d="M629.5,274.9c0,1.4,1.2,2.6,2.6,2.6c1.4,0,2.6-1.2,2.6-2.6c0-1.4-1.2-2.6-2.6-2.6
						C630.7,272.3,629.5,273.4,629.5,274.9z"/>
				</g>
			</g>
			<path class="st19" d="M620.9,279.2c0,4.8,3.9,8.7,8.7,8.7c4.8,0,8.7-3.9,8.7-8.7c0-4.8-3.9-8.7-8.7-8.7
				C624.8,270.5,620.9,274.4,620.9,279.2z"/>
			<path class="st7" d="M629.5,274.9c0,1.4,1.2,2.6,2.6,2.6c1.4,0,2.6-1.2,2.6-2.6c0-1.4-1.2-2.6-2.6-2.6
				C630.7,272.3,629.5,273.4,629.5,274.9z"/>
		</g>
		<g>
			
				<ellipse transform="matrix(9.853818e-02 -0.9951 0.9951 9.853818e-02 301.4671 896.0942)" class="st18" cx="645.3" cy="281.7" rx="9.3" ry="9.3"/>
			<g>
				<g>
					
						<ellipse transform="matrix(0.9732 -0.2298 0.2298 0.9732 -47.4468 155.8034)" class="st19" cx="645.3" cy="281.7" rx="8.7" ry="8.7"/>
					<path class="st7" d="M645.3,277.3c0,1.4,1.2,2.6,2.6,2.6c1.4,0,2.6-1.2,2.6-2.6s-1.2-2.6-2.6-2.6
						C646.5,274.7,645.3,275.9,645.3,277.3z"/>
				</g>
			</g>
			
				<ellipse transform="matrix(0.9732 -0.2298 0.2298 0.9732 -47.4468 155.8034)" class="st19" cx="645.3" cy="281.7" rx="8.7" ry="8.7"/>
			<path class="st7" d="M645.3,277.3c0,1.4,1.2,2.6,2.6,2.6c1.4,0,2.6-1.2,2.6-2.6s-1.2-2.6-2.6-2.6
				C646.5,274.7,645.3,275.9,645.3,277.3z"/>
		</g>
		<g>
			<path class="st18" d="M648.9,296.5c0,5.2,4.2,9.3,9.3,9.3c5.2,0,9.3-4.2,9.3-9.3c0-5.2-4.2-9.3-9.3-9.3
				C653,287.2,648.9,291.4,648.9,296.5z"/>
			<g>
				<g>
					<circle class="st19" cx="658.2" cy="296.5" r="8.7"/>
					<path class="st7" d="M658.2,292.2c0,1.4,1.2,2.6,2.6,2.6c1.4,0,2.6-1.2,2.6-2.6c0-1.4-1.2-2.6-2.6-2.6
						C659.3,289.6,658.2,290.8,658.2,292.2z"/>
				</g>
			</g>
			<circle class="st19" cx="658.2" cy="296.5" r="8.7"/>
			<path class="st7" d="M658.2,292.2c0,1.4,1.2,2.6,2.6,2.6c1.4,0,2.6-1.2,2.6-2.6c0-1.4-1.2-2.6-2.6-2.6
				C659.3,289.6,658.2,290.8,658.2,292.2z"/>
		</g>
		<g>
			<path class="st18" d="M643.7,305.2c0,5.2,4.2,9.3,9.3,9.3c5.2,0,9.3-4.2,9.3-9.3c0-5.2-4.2-9.3-9.3-9.3
				C647.9,295.9,643.7,300,643.7,305.2z"/>
			<g>
				<g>
					
						<ellipse transform="matrix(0.9732 -0.2298 0.2298 0.9732 -52.65 158.2032)" class="st19" cx="653" cy="305.2" rx="8.7" ry="8.7"/>
					<path class="st7" d="M653,300.9c0,1.4,1.2,2.6,2.6,2.6c1.4,0,2.6-1.2,2.6-2.6c0-1.4-1.2-2.6-2.6-2.6
						C654.2,298.3,653,299.4,653,300.9z"/>
				</g>
			</g>
			
				<ellipse transform="matrix(0.9732 -0.2298 0.2298 0.9732 -52.65 158.2032)" class="st19" cx="653" cy="305.2" rx="8.7" ry="8.7"/>
			<path class="st7" d="M653,300.9c0,1.4,1.2,2.6,2.6,2.6c1.4,0,2.6-1.2,2.6-2.6c0-1.4-1.2-2.6-2.6-2.6
				C654.2,298.3,653,299.4,653,300.9z"/>
		</g>
		<g>
			<path class="st18" d="M646.3,287.9c0,5.2,4.2,9.3,9.3,9.3c5.2,0,9.3-4.2,9.3-9.3c0-5.2-4.2-9.3-9.3-9.3
				C650.5,278.5,646.3,282.7,646.3,287.9z"/>
			<g>
				<g>
					
						<ellipse transform="matrix(0.9732 -0.2298 0.2298 0.9732 -48.601 158.3318)" class="st19" cx="655.6" cy="287.9" rx="8.7" ry="8.7"/>
					<path class="st7" d="M655.6,283.5c0,1.4,1.2,2.6,2.6,2.6c1.4,0,2.6-1.2,2.6-2.6s-1.2-2.6-2.6-2.6
						C656.8,281,655.6,282.1,655.6,283.5z"/>
				</g>
			</g>
			
				<ellipse transform="matrix(0.9732 -0.2298 0.2298 0.9732 -48.601 158.3318)" class="st19" cx="655.6" cy="287.9" rx="8.7" ry="8.7"/>
			<path class="st7" d="M655.6,283.5c0,1.4,1.2,2.6,2.6,2.6c1.4,0,2.6-1.2,2.6-2.6s-1.2-2.6-2.6-2.6
				C656.8,281,655.6,282.1,655.6,283.5z"/>
		</g>
		<g>
			<path class="st18" d="M657.5,304.4c0,5.2,4.2,9.3,9.3,9.3c5.2,0,9.3-4.2,9.3-9.3c0-5.2-4.2-9.3-9.3-9.3
				C661.7,295.1,657.5,299.2,657.5,304.4z"/>
			<g>
				<g>
					<path class="st19" d="M658.2,304.4c0,4.8,3.9,8.7,8.7,8.7c4.8,0,8.7-3.9,8.7-8.7c0-4.8-3.9-8.7-8.7-8.7
						C662.1,295.7,658.2,299.6,658.2,304.4z"/>
					<path class="st7" d="M666.9,300c0,1.4,1.2,2.6,2.6,2.6c1.4,0,2.6-1.2,2.6-2.6s-1.2-2.6-2.6-2.6
						C668,297.5,666.9,298.6,666.9,300z"/>
				</g>
			</g>
			<path class="st19" d="M658.2,304.4c0,4.8,3.9,8.7,8.7,8.7c4.8,0,8.7-3.9,8.7-8.7c0-4.8-3.9-8.7-8.7-8.7
				C662.1,295.7,658.2,299.6,658.2,304.4z"/>
			<path class="st7" d="M666.9,300c0,1.4,1.2,2.6,2.6,2.6c1.4,0,2.6-1.2,2.6-2.6s-1.2-2.6-2.6-2.6C668,297.5,666.9,298.6,666.9,300z
				"/>
		</g>
		<g>
			<circle class="st18" cx="589.6" cy="280.7" r="9.3"/>
			<g>
				<g>
					<path class="st19" d="M580.9,280.7c0,4.8,3.9,8.7,8.7,8.7c4.8,0,8.7-3.9,8.7-8.7c0-4.8-3.9-8.7-8.7-8.7
						C584.8,272.1,580.9,276,580.9,280.7z"/>
					<path class="st7" d="M589.6,276.4c0,1.4,1.2,2.6,2.6,2.6c1.4,0,2.6-1.2,2.6-2.6c0-1.4-1.2-2.6-2.6-2.6
						C590.7,273.8,589.6,275,589.6,276.4z"/>
				</g>
			</g>
			<path class="st19" d="M580.9,280.7c0,4.8,3.9,8.7,8.7,8.7c4.8,0,8.7-3.9,8.7-8.7c0-4.8-3.9-8.7-8.7-8.7
				C584.8,272.1,580.9,276,580.9,280.7z"/>
			<path class="st7" d="M589.6,276.4c0,1.4,1.2,2.6,2.6,2.6c1.4,0,2.6-1.2,2.6-2.6c0-1.4-1.2-2.6-2.6-2.6
				C590.7,273.8,589.6,275,589.6,276.4z"/>
		</g>
		<g>
			
				<ellipse transform="matrix(0.9732 -0.2298 0.2298 0.9732 -50.0485 145.8962)" class="st18" cx="601.5" cy="287.9" rx="9.3" ry="9.3"/>
			<g>
				<g>
					<path class="st19" d="M592.8,287.9c0,4.8,3.9,8.7,8.7,8.7c4.8,0,8.7-3.9,8.7-8.7c0-4.8-3.9-8.7-8.7-8.7
						C596.7,279.2,592.8,283.1,592.8,287.9z"/>
					<path class="st7" d="M601.5,283.5c0,1.4,1.2,2.6,2.6,2.6c1.4,0,2.6-1.2,2.6-2.6s-1.2-2.6-2.6-2.6
						C602.6,281,601.5,282.1,601.5,283.5z"/>
				</g>
			</g>
			<path class="st19" d="M592.8,287.9c0,4.8,3.9,8.7,8.7,8.7c4.8,0,8.7-3.9,8.7-8.7c0-4.8-3.9-8.7-8.7-8.7
				C596.7,279.2,592.8,283.1,592.8,287.9z"/>
			<path class="st7" d="M601.5,283.5c0,1.4,1.2,2.6,2.6,2.6c1.4,0,2.6-1.2,2.6-2.6s-1.2-2.6-2.6-2.6
				C602.6,281,601.5,282.1,601.5,283.5z"/>
		</g>
		<g>
			<path class="st18" d="M567.2,283.4c0,5.2,4.2,9.3,9.3,9.3c5.2,0,9.3-4.2,9.3-9.3c0-5.2-4.2-9.3-9.3-9.3
				C571.4,274.1,567.2,278.3,567.2,283.4z"/>
			<g>
				<g>
					<path class="st19" d="M567.8,283.4c0,4.8,3.9,8.7,8.7,8.7c4.8,0,8.7-3.9,8.7-8.7c0-4.8-3.9-8.7-8.7-8.7
						C571.7,274.8,567.8,278.6,567.8,283.4z"/>
					<path class="st7" d="M576.5,279.1c0,1.4,1.2,2.6,2.6,2.6c1.4,0,2.6-1.2,2.6-2.6s-1.2-2.6-2.6-2.6
						C577.7,276.5,576.5,277.7,576.5,279.1z"/>
				</g>
			</g>
			<path class="st19" d="M567.8,283.4c0,4.8,3.9,8.7,8.7,8.7c4.8,0,8.7-3.9,8.7-8.7c0-4.8-3.9-8.7-8.7-8.7
				C571.7,274.8,567.8,278.6,567.8,283.4z"/>
			<path class="st7" d="M576.5,279.1c0,1.4,1.2,2.6,2.6,2.6c1.4,0,2.6-1.2,2.6-2.6s-1.2-2.6-2.6-2.6
				C577.7,276.5,576.5,277.7,576.5,279.1z"/>
		</g>
		<g>
			
				<ellipse transform="matrix(0.9732 -0.2298 0.2298 0.9732 -50.223 135.5015)" class="st18" cx="556.8" cy="283.4" rx="9.3" ry="9.3"/>
			<g>
				<g>
					<path class="st19" d="M548.1,283.4c0,4.8,3.9,8.7,8.7,8.7c4.8,0,8.7-3.9,8.7-8.7c0-4.8-3.9-8.7-8.7-8.7
						C552,274.8,548.1,278.6,548.1,283.4z"/>
					<path class="st7" d="M556.8,279.1c0,1.4,1.2,2.6,2.6,2.6c1.4,0,2.6-1.2,2.6-2.6s-1.2-2.6-2.6-2.6
						C557.9,276.5,556.8,277.7,556.8,279.1z"/>
				</g>
			</g>
			<path class="st19" d="M548.1,283.4c0,4.8,3.9,8.7,8.7,8.7c4.8,0,8.7-3.9,8.7-8.7c0-4.8-3.9-8.7-8.7-8.7
				C552,274.8,548.1,278.6,548.1,283.4z"/>
			<path class="st7" d="M556.8,279.1c0,1.4,1.2,2.6,2.6,2.6c1.4,0,2.6-1.2,2.6-2.6s-1.2-2.6-2.6-2.6
				C557.9,276.5,556.8,277.7,556.8,279.1z"/>
		</g>
		<g>
			<path class="st18" d="M558.5,279.2c0,5.2,4.2,9.3,9.3,9.3s9.3-4.2,9.3-9.3c0-5.2-4.2-9.3-9.3-9.3S558.5,274.1,558.5,279.2z"/>
			<g>
				<g>
					<path class="st19" d="M559.2,279.2c0,4.8,3.9,8.7,8.7,8.7c4.8,0,8.7-3.9,8.7-8.7c0-4.8-3.9-8.7-8.7-8.7
						C563.1,270.5,559.2,274.4,559.2,279.2z"/>
					<path class="st7" d="M567.8,274.9c0,1.4,1.2,2.6,2.6,2.6c1.4,0,2.6-1.2,2.6-2.6c0-1.4-1.2-2.6-2.6-2.6
						C569,272.3,567.8,273.4,567.8,274.9z"/>
				</g>
			</g>
			<path class="st19" d="M559.2,279.2c0,4.8,3.9,8.7,8.7,8.7c4.8,0,8.7-3.9,8.7-8.7c0-4.8-3.9-8.7-8.7-8.7
				C563.1,270.5,559.2,274.4,559.2,279.2z"/>
			<path class="st7" d="M567.8,274.9c0,1.4,1.2,2.6,2.6,2.6c1.4,0,2.6-1.2,2.6-2.6c0-1.4-1.2-2.6-2.6-2.6
				C569,272.3,567.8,273.4,567.8,274.9z"/>
		</g>
		<g>
			<path class="st18" d="M579.1,294.4c0,5.2,4.2,9.3,9.3,9.3s9.3-4.2,9.3-9.3c0-5.2-4.2-9.3-9.3-9.3S579.1,289.2,579.1,294.4z"/>
			<g>
				<g>
					<path class="st19" d="M579.7,294.4c0,4.8,3.9,8.7,8.7,8.7c4.8,0,8.7-3.9,8.7-8.7c0-4.8-3.9-8.7-8.7-8.7
						C583.6,285.7,579.7,289.6,579.7,294.4z"/>
					<path class="st7" d="M588.4,290c0,1.4,1.2,2.6,2.6,2.6c1.4,0,2.6-1.2,2.6-2.6s-1.2-2.6-2.6-2.6
						C589.6,287.5,588.4,288.6,588.4,290z"/>
				</g>
			</g>
			<path class="st19" d="M579.7,294.4c0,4.8,3.9,8.7,8.7,8.7c4.8,0,8.7-3.9,8.7-8.7c0-4.8-3.9-8.7-8.7-8.7
				C583.6,285.7,579.7,289.6,579.7,294.4z"/>
			<path class="st7" d="M588.4,290c0,1.4,1.2,2.6,2.6,2.6c1.4,0,2.6-1.2,2.6-2.6s-1.2-2.6-2.6-2.6
				C589.6,287.5,588.4,288.6,588.4,290z"/>
		</g>
	</g>
</g>
<g>
	<ellipse class="st6" cx="891.7" cy="325.9" rx="124.5" ry="39.4"/>
	<ellipse class="st7" cx="891.7" cy="317.7" rx="94.8" ry="29.6"/>
	<path class="st7" d="M888.3,333.3c1.1,0,2.3,0,3.4,0c1.1,0,2.3,0,3.4,0c69.2-1.5,128.1-50.7,143.5-118.1l4.4-19.4H740.3l4.4,19.4
		C760.2,282.7,819.2,331.9,888.3,333.3z"/>
	<ellipse class="st7" cx="891.7" cy="195.8" rx="150.8" ry="41.2"/>
	<path class="st20" d="M1006.1,203.5c-0.1,0.1-0.2,0.2-0.2,0.3C1005.9,203.7,1006,203.6,1006.1,203.5z"/>
	<path class="st20" d="M1005.3,204.3c0,0,0.1-0.1,0.1-0.1C1005.4,204.2,1005.3,204.3,1005.3,204.3
		C1005.3,204.3,1005.3,204.3,1005.3,204.3z"/>
	<path class="st20" d="M1005.9,203.7c-0.1,0.2-0.3,0.3-0.4,0.5C1005.6,204.1,1005.7,203.9,1005.9,203.7z"/>
	<path class="st20" d="M1007.2,202.2c-0.1,0.2-0.3,0.4-0.4,0.6C1006.9,202.6,1007,202.4,1007.2,202.2z"/>
	<path class="st20" d="M1007.3,202c0.2-0.2,0.3-0.5,0.5-0.8C1007.6,201.5,1007.5,201.8,1007.3,202z"/>
	<path class="st20" d="M1007.3,202c0,0.1-0.1,0.1-0.1,0.2C1007.2,202.1,1007.2,202.1,1007.3,202z"/>
	<path class="st20" d="M778.1,204.3C778.1,204.3,778.1,204.3,778.1,204.3c0,0-0.1-0.1-0.1-0.1C778.1,204.2,778.1,204.3,778.1,204.3z
		"/>
	<path class="st20" d="M1006.7,202.7c-0.1,0.1-0.1,0.2-0.2,0.2C1006.6,202.9,1006.7,202.8,1006.7,202.7z"/>
	<path class="st20" d="M1006.5,203c-0.1,0.2-0.3,0.3-0.4,0.5C1006.2,203.3,1006.4,203.1,1006.5,203z"/>
	<path class="st20" d="M776.1,202c-0.2-0.2-0.3-0.5-0.5-0.8C775.8,201.5,776,201.8,776.1,202z"/>
	<path class="st20" d="M778,204.2c-0.1-0.2-0.3-0.3-0.4-0.5C777.7,203.9,777.9,204.1,778,204.2z"/>
	<path class="st20" d="M776.3,202.2c0-0.1-0.1-0.1-0.1-0.2C776.2,202.1,776.2,202.1,776.3,202.2z"/>
	<path class="st20" d="M778.1,204.3c13.6,13.6,59.3,23.7,113.6,23.7c54.3,0,99.9-10,113.6-23.7c-13.7-13.6-59.3-23.7-113.6-23.7
		S791.8,190.7,778.1,204.3z"/>
	<path class="st20" d="M776.7,202.7c-0.2-0.2-0.3-0.4-0.4-0.6C776.4,202.4,776.6,202.6,776.7,202.7z"/>
	<path class="st20" d="M776.9,203c-0.1-0.1-0.1-0.2-0.2-0.2C776.8,202.8,776.8,202.9,776.9,203z"/>
	<path class="st20" d="M777.6,203.7c-0.1-0.1-0.2-0.2-0.3-0.3C777.4,203.6,777.5,203.7,777.6,203.7z"/>
	<path class="st20" d="M777.3,203.5c-0.1-0.2-0.3-0.3-0.4-0.5C777,203.1,777.2,203.3,777.3,203.5z"/>
	<path class="st21" d="M774,195.8c0,2.9,1.5,5.8,4.2,8.5c13.6-13.6,59.3-23.7,113.6-23.7c54.3,0,99.9,10,113.6,23.7
		c2.7-2.7,4.2-5.6,4.2-8.5c0-17.8-52.7-32.2-117.8-32.2C826.7,163.7,774,178.1,774,195.8z"/>
	<path class="st21" d="M774,195.8c0,2.9,1.5,5.8,4.2,8.5c13.6-13.6,59.3-23.7,113.6-23.7c54.3,0,99.9,10,113.6,23.7
		c2.7-2.7,4.2-5.6,4.2-8.5c0-17.8-52.7-32.2-117.8-32.2C826.7,163.7,774,178.1,774,195.8z"/>
	<path class="st22" d="M785.7,209.8c14.6-13.2,59.5-22.9,112.8-22.9c46.7,0,87,7.4,106,18.2c0.3-0.3,0.5-0.5,0.8-0.8
		c-13.7-13.6-59.3-23.7-113.6-23.7c-54.3,0-99.9,10-113.6,23.7C780,206.2,782.6,208.1,785.7,209.8z"/>
</g>
<g>
	<path class="st1" d="M1009.6,765.9c0.1-2.1-0.5-4.1-1.6-5.8l0,0c-0.2-0.2-0.3-0.5-0.5-0.7c0,0,0,0,0,0c-0.2-0.2-0.4-0.4-0.5-0.6
		c0,0-0.1-0.1-0.1-0.1c-0.2-0.2-0.4-0.3-0.6-0.5c-0.1,0-0.1-0.1-0.2-0.1c-0.2-0.1-0.3-0.3-0.5-0.4c-0.1-0.1-0.2-0.1-0.2-0.1
		c-0.2-0.1-0.3-0.2-0.5-0.3c-0.1-0.1-0.2-0.1-0.3-0.2c-0.1-0.1-0.3-0.1-0.4-0.2c-0.1-0.1-0.3-0.1-0.4-0.2c-0.1,0-0.3-0.1-0.4-0.1
		c-0.2-0.1-0.4-0.1-0.6-0.1c-0.1,0-0.2,0-0.3-0.1c-0.3-0.1-0.6-0.1-0.9-0.1l-256.9-21.8L985.1,688c4.8-0.9,8-5.6,7.1-10.5l-1.9-10.3
		c0,0,0-0.1,0-0.1v0c0,0,0,0,0,0c-0.4-2.1-1.5-3.9-3-5.2c0,0,0,0,0,0c-0.2-0.2-0.4-0.4-0.7-0.5c0,0,0,0,0,0
		c-0.2-0.1-0.4-0.3-0.7-0.4c0,0-0.1,0-0.1-0.1c-0.2-0.1-0.4-0.2-0.7-0.3c-0.1,0-0.1,0-0.2-0.1c-0.2-0.1-0.4-0.2-0.6-0.2
		c-0.1,0-0.2,0-0.3-0.1c-0.2-0.1-0.4-0.1-0.6-0.2c-0.1,0-0.2,0-0.3-0.1c-0.2,0-0.3-0.1-0.5-0.1c-0.2,0-0.3,0-0.5,0
		c-0.1,0-0.3,0-0.4,0c-0.2,0-0.4,0-0.6,0c-0.1,0-0.2,0-0.3,0c-0.3,0-0.6,0.1-0.9,0.1l-363.7,63.6l-294.8-25l-34-2.9l-75.9-6.4
		l-81.3-6.9c-0.9-0.1-1.8,0-2.7,0.2c-3.8,0.8-6.7,4-7,8.1l-2,26.1c0,0.3,0,0.6,0,0.8c0,0.1,0,0.2,0,0.2c0,0.1,0,0.2,0,0.3
		c0,0.1,0,0.2,0,0.3c0,0,0,0.1,0,0.1c0,0,0,0.1,0,0.1c0.1,0.5,0.2,1.1,0.4,1.6c0,0.1,0.1,0.1,0.1,0.2c0.1,0.2,0.1,0.4,0.2,0.5
		c0,0.1,0.1,0.1,0.1,0.2c0.1,0.2,0.2,0.5,0.4,0.7c0.4,0.8,1,1.4,1.6,2c1.3,1.2,2.9,2.1,4.8,2.4c0.3,0,0.5,0.1,0.8,0.1L284.3,737
		l34.1,2.3l151.2,10.1l-161.8,28.3l-33.6,5.9l-109.4,19.1l-46,8.1c-0.4,0.1-0.8,0.2-1.1,0.3c-3.7,1.1-6.2,4.5-6.3,8.4
		c0,0.6,0,1.2,0.1,1.8l2.8,15.3l1.9,10.5c0,0.2,0.1,0.5,0.2,0.7c0,0,0,0.1,0,0.1c0,0.1,0,0.2,0.1,0.2c0.1,0.2,0.1,0.4,0.2,0.6
		c0,0.1,0.1,0.1,0.1,0.2c0.2,0.5,0.5,1,0.7,1.4c0,0.1,0.1,0.1,0.1,0.2c0.1,0.2,0.2,0.3,0.3,0.5c0,0.1,0.1,0.1,0.1,0.2
		c0.2,0.2,0.3,0.4,0.5,0.6c0,0,0,0,0,0c0.2,0.2,0.4,0.4,0.6,0.6c1.3,1.1,2.9,1.8,4.6,2c0.1,0,0.1,0,0.2,0c0.5,0.1,1.1,0.1,1.7,0
		c0.3,0,0.6-0.1,1-0.1l155-30l33.5-6.5l302.1-58.5l382.1,25.5c4.9,0.3,9.2-3.4,9.6-8.3l0.8-10.4
		C1009.6,766,1009.6,765.9,1009.6,765.9L1009.6,765.9C1009.6,765.9,1009.6,765.9,1009.6,765.9z"/>
	<g>
		<g>
			<path class="st5" d="M130.1,668.9c-5-0.4-9.3,3.3-9.7,8.3l-2,26.1c-0.4,5,3.4,9.3,8.4,9.6l872.5,58.2c4.9,0.3,9.2-3.4,9.6-8.3
				l0.8-10.4c0.4-4.9-3.3-9.2-8.2-9.6L130.1,668.9z"/>
			<path class="st23" d="M118.4,703.3c-0.4,5,3.4,9.3,8.4,9.6l872.5,58.2c4.9,0.3,9.2-3.4,9.6-8.3l0.8-10.4c0,0,0-0.1,0-0.1
				c-0.4,4.9-4.7,8.5-9.5,8.2l-872.5-58.2c-5-0.3-8.7-4.7-8.4-9.6L118.4,703.3z"/>
			<g>
				<path class="st5" d="M321.4,685.1l-2.3,30l681,45.4c4.9,0.3,9.1-3.3,9.5-8.2c0.3-4.9-3.3-9.1-8.2-9.5L321.4,685.1z"/>
				<path class="st5" d="M123.3,712c-1-0.5-2-1.3-2.7-2.1C121.3,710.7,122.3,711.4,123.3,712z"/>
				<path class="st5" d="M126.8,712.9L126.8,712.9c-0.6,0-1.2-0.1-1.8-0.3C125.5,712.8,126.1,712.9,126.8,712.9z"/>
				<path class="st5" d="M123.3,712c0.5,0.3,1.1,0.5,1.7,0.6C124.4,712.5,123.8,712.2,123.3,712z"/>
				<path class="st5" d="M120.4,677.2l-1.2,15.5c-0.4,5,3.4,9.3,8.4,9.6l157.5,10.5l2.3-30.6l-157.3-13.3
					C125.1,668.5,120.8,672.2,120.4,677.2z"/>
				<path class="st23" d="M120.6,709.8c-0.4-0.4-0.7-0.9-1-1.4C119.9,708.9,120.2,709.4,120.6,709.8z"/>
				<path class="st23" d="M999.3,771.1l-681-45.4l0,0L999.3,771.1c4.9,0.3,9.2-3.4,9.6-8.3l0,0
					C1008.5,767.7,1004.2,771.4,999.3,771.1z"/>
				<path class="st23" d="M1009.6,752.3L1009.6,752.3C1009.6,752.3,1009.6,752.4,1009.6,752.3
					C1009.6,752.4,1009.6,752.3,1009.6,752.3z"/>
				<path class="st23" d="M118.4,703.3c-0.1,1.9,0.3,3.6,1.2,5.2C118.7,706.9,118.3,705.1,118.4,703.3z"/>
				<rect x="205.5" y="639.3" class="st23" width="0" height="157.8"/>
				<path class="st23" d="M118.4,703.3c-0.1,1.9,0.3,3.6,1.2,5.2c0.3,0.5,0.6,1,1,1.4c0.8,0.9,1.7,1.6,2.7,2.1
					c0.5,0.3,1.1,0.5,1.7,0.6c0.6,0.2,1.2,0.3,1.8,0.3l157.5,10.5l0.8-10.6l-157.5-10.5c-5-0.3-8.7-4.7-8.4-9.6L118.4,703.3z"/>
				<path class="st23" d="M1000.1,760.5l-681-45.4l-0.8,10.6l681,45.4c4.9,0.3,9.2-3.4,9.6-8.3l0.8-10.4c0,0,0-0.1,0-0.1
					C1009.2,757.2,1005,760.8,1000.1,760.5z"/>
				<polygon class="st24" points="319.1,715.1 321.4,685.1 287.4,682.2 285.1,712.8 				"/>
				<rect x="301.3" y="707.5" class="st23" width="0" height="34.1"/>
				<polygon class="st25" points="318.3,725.7 319.1,715.1 285.1,712.8 284.3,723.4 				"/>
			</g>
		</g>
		<g>
			<path class="st5" d="M980,646.5L118.6,797.2c-4.9,0.9-8.2,5.6-7.3,10.5l4.7,25.8c0.9,4.9,5.6,8.1,10.5,7.2l858.5-166.2
				c4.8-0.9,8-5.6,7.1-10.5l-1.9-10.3C989.5,648.8,984.8,645.6,980,646.5z"/>
			<path class="st23" d="M983.2,664L124.7,830.2c-4.9,0.9-9.6-2.3-10.5-7.2l1.9,10.5c0.9,4.9,5.6,8.1,10.5,7.2l858.5-166.2
				c4.8-0.9,8-5.6,7.1-10.5l-1.9-10.3c0,0,0-0.1,0-0.1C991.2,658.4,988,663,983.2,664z"/>
			<g>
				<path class="st5" d="M980,646.5L307.7,764.1l5.4,29.6l670-129.7c4.8-0.9,8-5.5,7.1-10.4C989.4,648.8,984.8,645.6,980,646.5z"/>
				<path class="st5" d="M123,840.6c-1.1-0.2-2.2-0.7-3.2-1.4C120.8,839.9,121.9,840.3,123,840.6z"/>
				<path class="st5" d="M126.6,840.6L126.6,840.6c-0.6,0.1-1.2,0.2-1.8,0.2C125.4,840.8,126,840.7,126.6,840.6z"/>
				<path class="st5" d="M123,840.6c0.6,0.1,1.2,0.2,1.8,0.2C124.2,840.8,123.6,840.7,123,840.6z"/>
				<path class="st5" d="M111.3,807.7l2.8,15.3c0.9,4.9,5.6,8.1,10.5,7.2l155-30l-5.6-30.2l-155.5,27.2
					C113.7,798,110.4,802.8,111.3,807.7z"/>
				<path class="st23" d="M119.8,839.2c-0.5-0.3-0.9-0.7-1.3-1.1C118.9,838.5,119.4,838.9,119.8,839.2z"/>
				<path class="st23" d="M985.1,674.4l-670,129.7l0,0L985.1,674.4c4.8-0.9,8-5.6,7.1-10.5l0,0C993.1,668.8,990,673.5,985.1,674.4z"
					/>
				<path class="st23" d="M990.4,653.7C990.4,653.7,990.3,653.6,990.4,653.7L990.4,653.7C990.3,653.6,990.4,653.7,990.4,653.7z"/>
				<path class="st23" d="M116.1,833.4c0.3,1.8,1.2,3.4,2.4,4.7C117.3,836.9,116.4,835.3,116.1,833.4z"/>
				<rect x="204.1" y="746.7" class="st23" width="0" height="157.8"/>
				<path class="st23" d="M114.1,823l1.9,10.5c0.3,1.8,1.2,3.4,2.4,4.7c0.4,0.4,0.9,0.8,1.3,1.1c1,0.7,2,1.1,3.2,1.4
					c0.6,0.1,1.2,0.2,1.8,0.2c0.6,0,1.2,0,1.8-0.2l155-30l-1.9-10.5l-155,30C119.8,831.1,115,827.9,114.1,823z"/>
				<path class="st23" d="M983.2,664l-670,129.7l1.9,10.5l670-129.7c4.8-0.9,8-5.6,7.1-10.5l-1.9-10.3c0,0,0-0.1,0-0.1
					C991.2,658.4,988,663,983.2,664z"/>
				<polygon class="st24" points="279.7,800.2 313.2,793.7 307.7,764.1 274.1,770 				"/>
				<rect x="298.3" y="790.3" class="st23" width="0" height="34.1"/>
				<polygon class="st25" points="281.6,810.6 315.1,804.1 313.2,793.7 279.7,800.2 				"/>
			</g>
		</g>
	</g>
</g>
</svg>
